<svg width="20" height="20" viewBox="0 0 20 20" fill="none" xmlns="http://www.w3.org/2000/svg">
<mask id="mask0_85_4683" style="mask-type:alpha" maskUnits="userSpaceOnUse" x="0" y="0" width="20" height="20">
<path d="M4.97709 19.0145C5.85617 19.3265 6.80859 19.3707 7.72625 19.2293C8.10436 19.1707 8.49103 19.0741 8.85676 18.9283C8.92534 18.9779 8.99486 19.0269 9.06582 19.0741C9.51964 19.376 10.0168 19.6084 10.544 19.7489C11.0959 19.896 11.6602 19.9331 12.2293 19.9217C13.2941 19.9003 14.3617 19.7112 15.3584 19.3317C16.3523 18.9536 17.2733 18.385 18.019 17.6231C18.6948 16.9326 19.2324 16.1106 19.5795 15.2082C19.9124 14.342 20.0524 13.4053 19.9824 12.48C19.911 11.5343 19.6162 10.5976 19.139 9.778C18.7147 9.0494 18.1176 8.42271 17.4433 7.92079C16.748 7.40363 15.9618 7.01028 15.1218 6.79313C14.6198 6.6636 14.1003 6.60312 13.5846 6.62884C13.7198 6.25835 13.8027 5.8669 13.8336 5.47737C13.8836 4.84306 13.7955 4.1897 13.5103 3.61634C13.2274 3.04775 12.7121 2.61297 12.0978 2.4463C11.8545 2.38011 11.6031 2.3563 11.3535 2.3763C11.2735 1.85056 11.0288 1.37102 10.6502 0.991008C10.2054 0.544801 9.61251 0.262886 9.00677 0.111451C8.42865 -0.0328398 7.83101 -0.0418885 7.25385 0.112879C6.68859 0.26479 6.15856 0.552896 5.70759 0.923386C5.25424 1.29626 4.86805 1.75389 4.59708 2.27582C4.34279 2.76536 4.18802 3.31967 4.08897 3.86064C3.98801 4.41209 3.94467 5.02735 4.04086 5.60594C3.828 5.66404 3.61895 5.73833 3.41751 5.82976C1.77983 6.57312 0.733601 8.21223 0.27787 9.90229C0.0421468 10.7766 -0.0492846 11.6933 0.0254801 12.5962C0.09834 13.4786 0.352158 14.3167 0.761221 15.1006C1.21505 15.9697 1.82364 16.7649 2.53224 17.4421C3.23322 18.1126 4.05801 18.6883 4.97709 19.0145Z" fill="#B3B5B8"/>
<path d="M1.28314 15.4449C0.835507 14.7311 0.493111 13.9558 0.347867 13.1224C0.204529 12.2986 0.217862 11.4448 0.368344 10.6228C0.670736 8.97467 1.51315 7.34366 2.95225 6.41838C3.03035 6.36838 3.11035 6.32124 3.1913 6.27695C3.46084 5.99027 3.81085 5.79979 4.19706 5.71169C4.78993 5.57597 5.41425 5.64978 6.00808 5.80646C6.56334 5.89789 7.10145 6.09551 7.58338 6.39743C7.78862 6.49553 7.99006 6.60125 8.18768 6.71316C7.63242 6.14647 6.94383 5.74026 6.15809 5.56216C5.5433 5.42263 4.89947 5.41787 4.28373 5.5474C4.21134 5.13738 4.21849 4.71308 4.26754 4.30164C4.32802 3.79876 4.45564 3.30065 4.63231 2.82587C4.81517 2.33585 5.1209 1.8944 5.48473 1.52153C6.23571 0.75198 7.31003 0.239104 8.40007 0.342441C9.50773 0.447207 10.754 1.06342 11.0826 2.2068C11.083 2.2087 11.0835 2.21061 11.084 2.21251C11.174 2.3968 11.2516 2.58729 11.3154 2.7811C11.3421 2.86254 11.3678 2.9473 11.3902 3.03349C11.3921 2.91539 11.3897 2.79682 11.3826 2.67967C11.5359 2.66872 11.6902 2.67586 11.8431 2.70015C12.4221 2.79253 12.9474 3.14445 13.2512 3.6459C13.7865 4.53069 13.7374 5.69074 13.3693 6.64458C13.1231 6.66887 12.8783 6.7122 12.6374 6.77935C12.4374 6.83507 12.2421 6.90459 12.0526 6.98936C12.0512 6.98983 12.0507 6.99126 12.0493 6.99221C12.4559 6.88269 12.8774 6.80364 13.2969 6.8003C13.2998 6.79983 13.3031 6.79983 13.306 6.79935L13.3055 6.8003C13.3745 6.79983 13.4436 6.80221 13.5126 6.80602C13.5155 6.79935 13.5184 6.79268 13.5212 6.78602C13.8355 6.77459 14.1517 6.79459 14.4655 6.84268C15.3037 6.97174 16.1042 7.30032 16.8228 7.7451C17.528 8.18178 18.1666 8.74752 18.66 9.41611C19.1871 10.13 19.5429 10.98 19.7048 11.851C19.8681 12.7291 19.83 13.6363 19.5953 14.4977C19.3538 15.3816 18.9128 16.203 18.3328 16.9102C17.6866 17.6983 16.8766 18.3288 15.9584 18.7708C15.0256 19.2193 14.0022 19.4846 12.9726 19.5798C11.9007 19.6789 10.8078 19.6303 9.81917 19.166C9.58773 19.0574 9.36916 18.9308 9.16153 18.7912C9.31725 18.7136 9.46678 18.626 9.60821 18.5269C9.14534 18.6898 8.65865 18.7865 8.16911 18.806C7.33813 19.0074 6.43381 19.0308 5.59949 18.845C4.70517 18.646 3.88133 18.1712 3.17607 17.5974C2.43366 16.9916 1.79269 16.2573 1.28314 15.4449Z" fill="white"/>
<path d="M5.60093 18.8455C6.43477 19.0312 7.33957 19.0079 8.17056 18.8065C8.66058 18.7874 9.14725 18.6903 9.60965 18.5274C9.46822 18.6264 9.31869 18.7141 9.16297 18.7917C9.37108 18.9312 9.58918 19.0579 9.82062 19.1665C10.8092 19.6308 11.9016 19.6793 12.9741 19.5803C14.0036 19.485 15.027 19.2198 15.9599 18.7712C16.878 18.3293 17.6881 17.6988 18.3343 16.9107C18.9143 16.203 19.3553 15.382 19.5967 14.4982C19.8319 13.6367 19.8696 12.7291 19.7062 11.8514C19.5443 10.98 19.1881 10.1304 18.6614 9.41658C18.1681 8.74798 17.529 8.18225 16.8242 7.74556C16.1051 7.30031 15.3051 6.97173 14.467 6.84315C14.1532 6.79505 13.8365 6.77458 13.5227 6.78648C13.5198 6.79315 13.5169 6.79981 13.5141 6.80648C13.445 6.80267 13.376 6.80029 13.3069 6.80077L13.3074 6.79981C13.3041 6.80029 13.3012 6.80029 13.2984 6.80077C12.8788 6.8041 12.4569 6.88315 12.0507 6.99268C12.0521 6.9922 12.0526 6.99077 12.054 6.98982C12.2436 6.90506 12.4388 6.83553 12.6388 6.77981C12.8793 6.71314 13.1241 6.66933 13.3708 6.64505C13.5046 6.29789 13.5955 5.92359 13.6322 5.54501C13.5941 5.64834 13.5441 5.74692 13.4779 5.83882C13.3179 6.06217 13.0641 6.20313 12.785 6.15169C12.4498 6.08979 12.1769 5.82978 12.0764 5.50881C11.9736 5.18118 12.0136 4.83117 12.0183 4.49354C12.024 4.07733 11.9445 3.65255 11.8302 3.25397C11.774 3.05729 11.7045 2.8649 11.6226 2.67823C11.5431 2.67442 11.4631 2.6749 11.384 2.68061C11.3912 2.79776 11.3935 2.91633 11.3916 3.03443C11.3692 2.94824 11.3435 2.86348 11.3169 2.78204C11.2535 2.58823 11.1754 2.39774 11.0854 2.21345C11.085 2.21155 11.0845 2.20964 11.084 2.20774C10.9592 1.77343 10.7021 1.4158 10.3711 1.13293C10.7545 1.66581 10.9749 2.32107 10.9864 2.97348C10.994 3.39016 10.9164 3.81542 10.7202 4.18638C10.5259 4.55259 10.2211 4.8445 9.84348 5.01594C9.39346 5.22071 8.85487 5.25928 8.37152 5.17309C7.8353 5.07784 7.33624 4.80641 6.91146 4.47354C6.4924 4.14495 6.13381 3.7416 5.87047 3.27825C5.68808 2.95777 5.63141 2.55823 5.61141 2.19536C5.59808 1.95058 5.60618 1.64724 5.66142 1.35342C5.60141 1.40818 5.54236 1.46438 5.48569 1.52247C5.12187 1.89534 4.81614 2.33679 4.63328 2.82681C4.45613 3.30111 4.32851 3.79922 4.26851 4.30258C4.21946 4.71354 4.21231 5.13832 4.2847 5.54834C4.90043 5.41833 5.54427 5.42357 6.15905 5.5631C6.9448 5.7412 7.63387 6.14741 8.18865 6.7141C7.99102 6.60219 7.78959 6.49647 7.58434 6.39837C7.10242 6.09645 6.56431 5.89883 6.00905 5.8074C5.41521 5.65025 4.7909 5.57691 4.19802 5.71263C3.81182 5.80073 3.4618 5.99121 3.19227 6.27789C3.11131 6.32218 3.03179 6.36932 2.95321 6.41932C1.51411 7.34507 0.671702 8.97561 0.36931 10.6238C0.218352 11.4457 0.205019 12.2995 0.348834 13.1234C0.494077 13.9567 0.836473 14.732 1.28411 15.4459C1.79365 16.2583 2.43463 16.9926 3.17846 17.5983C3.88278 18.1717 4.70661 18.6464 5.60093 18.8455ZM14.7041 8.81179C15.2456 8.69131 15.827 8.6856 16.3642 8.83037C16.8471 8.96085 17.289 9.21276 17.6514 9.55706C18.4014 10.2699 18.7929 11.2962 18.9214 12.3067C19.0562 13.3691 18.9114 14.4806 18.43 15.4425C17.9533 16.3945 17.1747 17.2054 16.1847 17.6212C16.0866 17.6626 15.9866 17.6983 15.8851 17.7312C15.1013 18.0498 14.2341 18.1888 13.405 18.0159C12.8945 17.9098 12.4126 17.6797 12.0231 17.3316C11.5864 16.9416 11.2745 16.4211 11.0916 15.8673C10.7973 14.9763 10.8659 13.9877 11.0916 13.0896C11.3402 12.101 11.7945 11.149 12.4355 10.3542C13.015 9.63421 13.7851 9.01609 14.7041 8.81179ZM7.221 7.65604C7.47291 7.4846 7.76721 7.38317 8.06674 7.33412C8.68772 7.23173 9.3706 7.34507 9.9011 7.69127C10.1525 7.85557 10.364 8.07939 10.4949 8.35082C10.6264 8.62322 10.6659 8.92608 10.6345 9.22562C10.5902 9.64992 10.3849 10.0918 10.0325 10.3171C9.93871 10.4742 9.80062 10.5995 9.6268 10.6814C9.34822 10.8128 9.02297 10.8276 8.72105 10.7971C8.3677 10.7609 8.02007 10.6561 7.69911 10.5061C7.38148 10.3576 7.07908 10.1599 6.83669 9.90469C6.62145 9.67802 6.45049 9.39896 6.41049 9.08419C6.36716 8.74227 6.49668 8.41273 6.70335 8.14558C6.84669 7.95891 7.0267 7.78795 7.221 7.65604ZM2.06461 9.54325C1.95032 8.96751 2.03223 8.34844 2.29938 7.82509C2.56939 7.29602 3.04036 6.86315 3.61657 6.69552C4.1404 6.54266 4.68852 6.63219 5.12615 6.96172C5.55474 7.28459 5.83999 7.78033 5.97809 8.2932C6.11905 8.81656 6.12 9.38991 5.91857 9.89803C5.89999 9.94517 5.87904 9.99041 5.85666 10.0356C5.84427 10.0752 5.83142 10.1142 5.81713 10.1528C5.62284 10.68 5.22235 11.1381 4.67995 11.3171C4.10469 11.5071 3.49514 11.3452 3.00798 11.0104C2.50844 10.6671 2.18223 10.1347 2.06461 9.54325ZM8.58724 15.052C8.84915 14.9882 9.15107 15.0954 9.28583 15.3363C9.4187 15.573 9.38489 15.8668 9.30631 16.1211C9.24345 16.6916 8.88344 17.2364 8.38151 17.5131C8.18865 17.6193 7.95102 17.7012 7.73006 17.6416C7.50244 17.5802 7.38386 17.3759 7.35195 17.1535C7.311 16.8669 7.37291 16.5573 7.48053 16.2906C7.58958 16.0197 7.74197 15.7606 7.92673 15.5344C8.09769 15.3258 8.31771 15.1177 8.58724 15.052ZM2.76988 16.2706C2.42367 15.7425 2.16509 15.1039 2.18842 14.463C2.20652 13.9691 2.44748 13.5148 2.91369 13.3148C3.38038 13.1143 3.9304 13.1958 4.38327 13.3934C4.85996 13.6015 5.24806 13.9434 5.54188 14.3691C5.82332 14.7773 6.04 15.242 6.15477 15.7249C6.21143 15.9644 6.24858 16.2273 6.22763 16.4811C6.21048 16.9054 6.05333 17.334 5.68475 17.575C5.2433 17.864 4.64804 17.7926 4.19469 17.5693C3.61229 17.2826 3.12418 16.8107 2.76988 16.2706Z" fill="#ECEADB"/>
<path d="M13.3764 19.3722C12.4683 19.2274 11.5859 18.9407 10.7511 18.5564C10.7101 18.5374 10.7101 18.475 10.754 18.4593C11.0559 18.3507 11.2849 18.0688 11.4659 17.8164C11.6126 17.6121 11.743 17.3911 11.8469 17.1602C11.8245 17.1368 11.8035 17.1121 11.7826 17.0883C11.7635 17.0954 11.744 17.1021 11.7249 17.1102C11.3792 17.2545 11.0783 17.4835 10.7587 17.6754C10.4225 17.8773 10.0539 18.0083 9.68106 18.1245C8.86722 18.3783 8.00671 18.544 7.15573 18.5988C6.42046 18.6464 5.67758 18.6188 4.95231 18.484C4.70611 18.4383 4.4623 18.3793 4.22229 18.3093C4.65612 18.5497 5.11851 18.7378 5.60091 18.845C6.43475 19.0307 7.33955 19.0074 8.17053 18.8059C8.66055 18.7869 9.14723 18.6897 9.60963 18.5269C9.4682 18.6259 9.31867 18.7136 9.16295 18.7912C9.37105 18.9307 9.58916 19.0574 9.82059 19.166C10.8092 19.6303 11.9016 19.6788 12.974 19.5798C13.2931 19.5503 13.6107 19.5026 13.926 19.4398C13.7422 19.4231 13.5588 19.4012 13.3764 19.3722Z" fill="#ECEADB"/>
<path d="M6.15762 5.56214C6.43905 5.62595 6.70763 5.71976 6.96288 5.83881C6.89431 5.79072 6.82431 5.74452 6.75383 5.69928C6.25667 5.38308 5.72141 5.1326 5.21473 4.83354C4.87186 4.63115 4.53089 4.40352 4.29945 4.07684C4.28755 4.15161 4.2766 4.22685 4.26755 4.30209C4.2185 4.71306 4.21135 5.13783 4.28374 5.54785C4.899 5.41785 5.54331 5.42261 6.15762 5.56214Z" fill="#ECEADB"/>
<path d="M4.81142 6.00026C5.44382 5.97835 6.08099 6.05312 6.68673 6.23789C7.15865 6.3817 7.61247 6.5979 8.00725 6.89505C7.89963 6.73124 7.7801 6.57552 7.64819 6.43075C7.62628 6.42027 7.60533 6.40885 7.58342 6.39837C7.1015 6.09645 6.56339 5.89883 6.00813 5.80739C5.4143 5.65024 4.78998 5.57691 4.1971 5.71263C3.8109 5.80073 3.46088 5.99121 3.19135 6.27789C3.1804 6.28408 3.16897 6.29074 3.15802 6.29694C3.68947 6.1155 4.25092 6.01931 4.81142 6.00026Z" fill="#ECEADB"/>
<path d="M14.4665 6.84263C14.1527 6.79454 13.836 6.77406 13.5221 6.78596C13.5193 6.79263 13.5164 6.7993 13.5136 6.80597C13.4445 6.80216 13.3755 6.79977 13.3064 6.80025L13.3069 6.7993C13.3036 6.79977 13.3007 6.79977 13.2979 6.80025C12.8783 6.80358 12.4564 6.88263 12.0502 6.99216C12.0516 6.99169 12.0521 6.99026 12.0535 6.9893C12.2431 6.90454 12.4383 6.83501 12.6383 6.7793C12.8788 6.71263 13.1236 6.66882 13.3702 6.64453C13.3807 6.61739 13.3902 6.59024 13.4002 6.56262C13.0893 6.595 12.7802 6.64548 12.4769 6.71549C11.9069 6.84644 11.3373 7.04788 10.8449 7.36884C11.1625 7.3598 11.4778 7.30979 11.793 7.26979C12.1745 7.22122 12.5521 7.20836 12.9359 7.23408C13.6322 7.28074 14.3146 7.42504 14.9913 7.5879C15.6746 7.75267 16.3461 7.97601 16.9789 8.28316C17.5694 8.56936 18.1252 8.92938 18.6195 9.3613C18.1323 8.71699 17.5104 8.16935 16.8247 7.74505C16.1051 7.29979 15.3046 6.97121 14.4665 6.84263Z" fill="#ECEADB"/>
<path d="M7.12292 15.9506C7.25292 15.6215 7.34388 15.2763 7.49198 14.9544C7.60437 14.7091 7.76342 14.501 7.97486 14.3443C8.14581 14.2053 8.34868 14.1048 8.5625 14.051C8.69346 14.0177 8.8287 14.002 8.96347 14.0034C9.00728 13.9996 9.05157 13.9962 9.09538 13.9943C9.28777 13.9858 9.48253 13.9972 9.67349 14.0291C9.66492 13.9839 9.62015 13.9443 9.58301 13.9253C9.22443 13.74 8.98394 13.3072 9.04585 12.9048C9.09919 12.5605 9.35444 12.28 9.59111 12.0424C9.73302 11.8995 9.8816 11.7643 10.0221 11.62C10.0359 11.6057 10.043 11.5909 10.0459 11.5757C10.1121 11.5276 10.1745 11.4738 10.2302 11.4138C10.1321 11.4938 10.0283 11.5671 9.91969 11.6304C9.5892 11.8243 9.213 11.9471 8.83061 11.9743C8.47774 11.999 8.12534 11.9176 7.79485 11.7981C7.30722 11.6214 6.71957 11.3019 6.44718 10.8242C6.44194 11.0695 6.3748 11.3085 6.20813 11.5038C6.00431 11.7423 5.69667 11.8671 5.39571 11.9295C5.03236 12.0052 4.65426 12.0028 4.28662 11.9638C3.91566 11.9247 3.54803 11.8476 3.19278 11.7328C3.11849 11.7162 3.04372 11.699 2.96991 11.6809C2.89848 11.6633 2.84943 11.7019 2.84467 11.7509C3.19373 11.9114 3.53231 12.0957 3.85946 12.2976C4.72426 12.8329 5.5381 13.5029 6.13193 14.3353C6.41385 14.7301 6.6429 15.1687 6.76814 15.6387C6.84053 15.9111 6.87387 16.1911 6.86815 16.4706C6.96435 16.3039 7.05196 16.1316 7.12292 15.9506Z" fill="#9B6F11"/>
<path d="M6.43096 11.7657C6.19429 12.2005 5.67474 12.4219 5.22139 12.5467C5.13329 12.571 5.04329 12.5919 4.95233 12.611C5.02091 12.6272 5.08901 12.6457 5.15615 12.6681C5.86999 12.9038 6.43096 13.4548 6.72955 14.1391C6.76812 14.2272 6.80145 14.3167 6.83145 14.4072C6.87193 14.2796 6.92765 14.1572 7.00575 14.0505C7.18956 13.8001 7.52196 13.6758 7.82673 13.7162C8.00817 13.7405 8.1715 13.8196 8.30579 13.9343C8.08007 13.4234 8.27912 12.8629 8.61723 12.4467C8.70247 12.3414 8.79676 12.2438 8.89772 12.1524C8.66438 12.2105 8.4258 12.2448 8.18579 12.2514C7.83482 12.261 7.44671 12.2205 7.1348 12.0481C6.89717 11.9167 6.68764 11.7262 6.52144 11.5085C6.50478 11.5971 6.47573 11.6838 6.43096 11.7657Z" fill="#E6A323"/>
</mask>
<g mask="url(#mask0_85_4683)">
<rect y="-1" width="20" height="21" fill="#D9D9D9"/>
</g>
</svg>
