<svg width="20" height="21" viewBox="0 0 20 21" fill="none" xmlns="http://www.w3.org/2000/svg">
<path d="M4.97709 19.547C5.85617 19.8589 6.80859 19.9032 7.72625 19.7618C8.10436 19.7032 8.49103 19.6065 8.85676 19.4608C8.92534 19.5103 8.99486 19.5594 9.06582 19.6065C9.51964 19.9085 10.0168 20.1408 10.544 20.2813C11.0959 20.4285 11.6602 20.4656 12.2293 20.4542C13.2941 20.4328 14.3617 20.2437 15.3584 19.8642C16.3523 19.4861 17.2733 18.9175 18.019 18.1555C18.6948 17.465 19.2324 16.6431 19.5795 15.7407C19.9124 14.8745 20.0524 13.9378 19.9824 13.0125C19.911 12.0667 19.6162 11.13 19.139 10.3105C18.7147 9.58187 18.1176 8.95519 17.4433 8.45326C16.748 7.9361 15.9618 7.54275 15.1218 7.3256C14.6198 7.19607 14.1003 7.13559 13.5846 7.16131C13.7198 6.79082 13.8027 6.39938 13.8336 6.00984C13.8836 5.37553 13.7955 4.72217 13.5103 4.14881C13.2274 3.58022 12.7121 3.14544 12.0978 2.97877C11.8545 2.91258 11.6031 2.88877 11.3535 2.90877C11.2735 2.38303 11.0288 1.90349 10.6502 1.52348C10.2054 1.07727 9.61251 0.795356 9.00677 0.643922C8.42865 0.499631 7.83101 0.490582 7.25385 0.64535C6.68859 0.79726 6.15856 1.08537 5.70759 1.45586C5.25424 1.82873 4.86804 2.28636 4.59708 2.80829C4.34279 3.29783 4.18802 3.85214 4.08897 4.39311C3.98801 4.94456 3.94467 5.55982 4.04086 6.13841C3.828 6.19651 3.61895 6.2708 3.41751 6.36223C1.77983 7.10559 0.733601 8.7447 0.27787 10.4348C0.0421468 11.3091 -0.0492846 12.2258 0.0254801 13.1287C0.09834 14.0111 0.352158 14.8492 0.761221 15.6331C1.21505 16.5021 1.82364 17.2974 2.53224 17.9746C3.23322 18.6451 4.05801 19.2208 4.97709 19.547Z" fill="#B3B5B8"/>
<path d="M1.28314 15.9774C0.835507 15.2635 0.493111 14.4883 0.347867 13.6549C0.204529 12.8311 0.217862 11.9772 0.368344 11.1553C0.670736 9.50714 1.51315 7.87613 2.95225 6.95085C3.03035 6.90085 3.11035 6.85371 3.1913 6.80942C3.46084 6.52274 3.81085 6.33226 4.19706 6.24416C4.78993 6.10844 5.41425 6.18225 6.00808 6.33893C6.56334 6.43036 7.10145 6.62798 7.58338 6.9299C7.78862 7.028 7.99006 7.13372 8.18768 7.24563C7.63242 6.67894 6.94383 6.27273 6.15809 6.09463C5.5433 5.9551 4.89947 5.95034 4.28373 6.07987C4.21134 5.66985 4.21849 5.24555 4.26754 4.83411C4.32802 4.33123 4.45564 3.83312 4.63231 3.35834C4.81517 2.86832 5.1209 2.42687 5.48473 2.054C6.23571 1.28445 7.31003 0.771574 8.40007 0.874911C9.50773 0.979677 10.754 1.59589 11.0826 2.73927C11.083 2.74117 11.0835 2.74308 11.084 2.74498C11.174 2.92927 11.2516 3.11976 11.3154 3.31357C11.3421 3.39501 11.3678 3.47977 11.3902 3.56596C11.3921 3.44787 11.3897 3.32929 11.3826 3.21214C11.5359 3.20119 11.6902 3.20833 11.8431 3.23262C12.4221 3.325 12.9474 3.67692 13.2512 4.17837C13.7865 5.06316 13.7374 6.22321 13.3693 7.17705C13.1231 7.20134 12.8783 7.24467 12.6374 7.31182C12.4374 7.36754 12.2421 7.43706 12.0526 7.52183C12.0512 7.5223 12.0507 7.52373 12.0493 7.52468C12.4559 7.41516 12.8774 7.33611 13.2969 7.33277C13.2998 7.3323 13.3031 7.3323 13.306 7.33182L13.3055 7.33277C13.3745 7.3323 13.4436 7.33468 13.5126 7.33849C13.5155 7.33182 13.5184 7.32515 13.5212 7.31849C13.8355 7.30706 14.1517 7.32706 14.4655 7.37516C15.3037 7.50421 16.1042 7.83279 16.8228 8.27757C17.528 8.71425 18.1666 9.27999 18.66 9.94859C19.1871 10.6624 19.5429 11.5125 19.7048 12.3834C19.8681 13.2616 19.83 14.1687 19.5953 15.0302C19.3538 15.914 18.9128 16.7355 18.3328 17.4427C17.6866 18.2308 16.8766 18.8613 15.9584 19.3032C15.0256 19.7518 14.0022 20.0171 12.9726 20.1123C11.9007 20.2113 10.8078 20.1628 9.81917 19.6985C9.58773 19.5899 9.36915 19.4632 9.16153 19.3237C9.31725 19.2461 9.46678 19.1585 9.60821 19.0594C9.14534 19.2223 8.65865 19.3189 8.16911 19.3385C7.33813 19.5399 6.43381 19.5632 5.59949 19.3775C4.70517 19.1785 3.88133 18.7037 3.17607 18.1298C2.43366 17.5241 1.79269 16.7898 1.28314 15.9774Z" fill="white"/>
<path d="M5.60093 19.378C6.43477 19.5637 7.33957 19.5404 8.17056 19.3389C8.66057 19.3199 9.14725 19.2227 9.60965 19.0599C9.46822 19.1589 9.3187 19.2465 9.16297 19.3242C9.37108 19.4637 9.58918 19.5904 9.82062 19.6989C10.8092 20.1632 11.9016 20.2118 12.9741 20.1128C14.0036 20.0175 15.027 19.7523 15.9599 19.3037C16.878 18.8618 17.6881 18.2313 18.3343 17.4431C18.9143 16.7355 19.3553 15.9145 19.5967 15.0307C19.8319 14.1692 19.8696 13.2616 19.7062 12.3839C19.5443 11.5124 19.1881 10.6629 18.6614 9.94905C18.1681 9.28045 17.529 8.71472 16.8242 8.27803C16.1051 7.83278 15.3051 7.5042 14.467 7.37562C14.1532 7.32752 13.8365 7.30705 13.5227 7.31895C13.5198 7.32562 13.5169 7.33228 13.5141 7.33895C13.445 7.33514 13.376 7.33276 13.3069 7.33324L13.3074 7.33228C13.3041 7.33276 13.3012 7.33276 13.2984 7.33324C12.8788 7.33657 12.4569 7.41562 12.0507 7.52515C12.0521 7.52467 12.0526 7.52324 12.054 7.52229C12.2436 7.43753 12.4388 7.368 12.6388 7.31228C12.8793 7.24562 13.1241 7.2018 13.3708 7.17752C13.5046 6.83036 13.5955 6.45606 13.6322 6.07748C13.5941 6.18081 13.5441 6.27939 13.4779 6.3713C13.3179 6.59464 13.0641 6.7356 12.785 6.68417C12.4498 6.62226 12.1769 6.36225 12.0764 6.04128C11.9736 5.71365 12.0136 5.36364 12.0183 5.02601C12.024 4.6098 11.9445 4.18502 11.8302 3.78644C11.774 3.58976 11.7045 3.39738 11.6226 3.2107C11.5431 3.20689 11.4631 3.20737 11.384 3.21308C11.3912 3.33023 11.3935 3.44881 11.3916 3.56691C11.3692 3.48071 11.3435 3.39595 11.3169 3.31452C11.2535 3.1207 11.1754 2.93022 11.0854 2.74592C11.085 2.74402 11.0845 2.74211 11.084 2.74021C10.9592 2.30591 10.7021 1.94827 10.3711 1.66541C10.7545 2.19828 10.9749 2.85354 10.9864 3.50595C10.994 3.92263 10.9164 4.34789 10.7202 4.71885C10.5259 5.08506 10.2211 5.37697 9.84348 5.54841C9.39346 5.75318 8.85487 5.79175 8.37152 5.70556C7.8353 5.61032 7.33624 5.33888 6.91146 5.00601C6.4924 4.67742 6.13381 4.27407 5.87047 3.81072C5.68808 3.49024 5.63141 3.0907 5.61141 2.72783C5.59808 2.48306 5.60618 2.17971 5.66142 1.88589C5.60141 1.94065 5.54236 1.99685 5.48569 2.05494C5.12187 2.42782 4.81614 2.86926 4.63328 3.35928C4.45613 3.83358 4.32851 4.3317 4.26851 4.83505C4.21946 5.24602 4.21231 5.67079 4.2847 6.08081C4.90043 5.9508 5.54427 5.95604 6.15905 6.09557C6.9448 6.27367 7.63387 6.67988 8.18865 7.24657C7.99102 7.13466 7.78959 7.02894 7.58434 6.93084C7.10242 6.62892 6.56431 6.4313 6.00905 6.33987C5.41521 6.18272 4.7909 6.10938 4.19802 6.2451C3.81182 6.3332 3.4618 6.52368 3.19227 6.81036C3.11131 6.85465 3.03179 6.90179 2.95321 6.95179C1.51411 7.87754 0.671703 9.50808 0.36931 11.1562C0.218352 11.9782 0.205019 12.832 0.348834 13.6559C0.494077 14.4892 0.836473 15.2645 1.28411 15.9783C1.79365 16.7907 2.43463 17.525 3.17846 18.1308C3.88278 18.7041 4.70661 19.1789 5.60093 19.378ZM14.7041 9.34426C15.2456 9.22378 15.827 9.21807 16.3642 9.36284C16.8471 9.49332 17.289 9.74523 17.6514 10.0895C18.4014 10.8024 18.7929 11.8286 18.9214 12.8392C19.0562 13.9016 18.9114 15.013 18.43 15.975C17.9533 16.9269 17.1747 17.7379 16.1847 18.1536C16.0866 18.1951 15.9866 18.2308 15.8851 18.2636C15.1013 18.5822 14.2341 18.7213 13.405 18.5484C12.8945 18.4422 12.4126 18.2122 12.0231 17.8641C11.5864 17.4741 11.2745 16.9536 11.0916 16.3998C10.7973 15.5088 10.8659 14.5202 11.0916 13.622C11.3402 12.6334 11.7945 11.6815 12.4355 10.8867C13.015 10.1667 13.7851 9.54856 14.7041 9.34426ZM7.221 8.18851C7.47291 8.01707 7.76721 7.91564 8.06674 7.86659C8.68772 7.7642 9.3706 7.87754 9.9011 8.22375C10.1525 8.38804 10.364 8.61186 10.4949 8.8833C10.6264 9.15569 10.6659 9.45855 10.6345 9.75809C10.5902 10.1824 10.3849 10.6243 10.0325 10.8496C9.93871 11.0067 9.80062 11.132 9.6268 11.2139C9.34822 11.3453 9.02297 11.3601 8.72105 11.3296C8.3677 11.2934 8.02007 11.1886 7.69911 11.0386C7.38148 10.89 7.07908 10.6924 6.83669 10.4372C6.62145 10.2105 6.45049 9.93143 6.41049 9.61666C6.36716 9.27474 6.49668 8.9452 6.70335 8.67805C6.84669 8.49138 7.0267 8.32042 7.221 8.18851ZM2.06461 10.0757C1.95032 9.49998 2.03223 8.88091 2.29938 8.35756C2.56939 7.82849 3.04036 7.39562 3.61657 7.22799C4.1404 7.07513 4.68852 7.16466 5.12615 7.4942C5.55474 7.81706 5.83999 8.3128 5.97809 8.82567C6.11905 9.34903 6.12 9.92238 5.91857 10.4305C5.89999 10.4776 5.87904 10.5229 5.85666 10.5681C5.84427 10.6076 5.83142 10.6467 5.81713 10.6853C5.62284 11.2124 5.22235 11.6705 4.67995 11.8496C4.10469 12.0396 3.49514 11.8777 3.00798 11.5429C2.50844 11.1996 2.18223 10.6672 2.06461 10.0757ZM8.58724 15.5845C8.84915 15.5207 9.15107 15.6278 9.28583 15.8688C9.4187 16.1055 9.38489 16.3993 9.30631 16.6536C9.24345 17.2241 8.88344 17.7689 8.38151 18.0455C8.18865 18.1517 7.95102 18.2336 7.73006 18.1741C7.50244 18.1127 7.38386 17.9084 7.35195 17.686C7.311 17.3993 7.37291 17.0898 7.48053 16.8231C7.58958 16.5522 7.74197 16.2931 7.92673 16.0669C8.09769 15.8583 8.31771 15.6502 8.58724 15.5845ZM2.76988 16.8031C2.42367 16.275 2.16509 15.6364 2.18842 14.9954C2.20652 14.5016 2.44748 14.0473 2.91369 13.8473C3.38038 13.6468 3.9304 13.7282 4.38327 13.9259C4.85996 14.134 5.24806 14.4759 5.54188 14.9016C5.82332 15.3097 6.04 15.7745 6.15477 16.2574C6.21143 16.4969 6.24858 16.7598 6.22763 17.0136C6.21048 17.4379 6.05333 17.8665 5.68475 18.1074C5.2433 18.3965 4.64804 18.3251 4.19469 18.1017C3.61229 17.8151 3.12418 17.3431 2.76988 16.8031Z" fill="#ECEADB"/>
<path d="M13.3764 19.9046C12.4683 19.7599 11.5859 19.4732 10.7511 19.0889C10.7101 19.0698 10.7101 19.0074 10.754 18.9917C11.0559 18.8832 11.2849 18.6012 11.4659 18.3488C11.6126 18.1446 11.743 17.9236 11.8469 17.6926C11.8245 17.6693 11.8035 17.6445 11.7826 17.6207C11.7635 17.6279 11.744 17.6345 11.7249 17.6426C11.3792 17.7869 11.0783 18.016 10.7587 18.2079C10.4225 18.4098 10.0539 18.5408 9.68106 18.657C8.86722 18.9108 8.00671 19.0765 7.15573 19.1313C6.42046 19.1789 5.67758 19.1513 4.95231 19.0165C4.70611 18.9708 4.4623 18.9117 4.22229 18.8417C4.65612 19.0822 5.11851 19.2703 5.60091 19.3775C6.43475 19.5632 7.33955 19.5398 8.17053 19.3384C8.66055 19.3194 9.14723 19.2222 9.60963 19.0594C9.46819 19.1584 9.31867 19.246 9.16295 19.3236C9.37105 19.4632 9.58916 19.5898 9.82059 19.6984C10.8092 20.1627 11.9016 20.2113 12.974 20.1122C13.2931 20.0827 13.6107 20.0351 13.926 19.9722C13.7422 19.9556 13.5588 19.9337 13.3764 19.9046Z" fill="#ECEADB"/>
<path d="M6.15755 6.09461C6.43899 6.15842 6.70757 6.25223 6.96282 6.37128C6.89425 6.32319 6.82425 6.277 6.75377 6.23176C6.25661 5.91555 5.72135 5.66507 5.21466 5.36601C4.87179 5.16362 4.53083 4.93599 4.29939 4.60931C4.28749 4.68408 4.27653 4.75932 4.26749 4.83456C4.21844 5.24553 4.21129 5.67031 4.28368 6.08032C4.89894 5.95032 5.54325 5.95508 6.15755 6.09461Z" fill="#ECEADB"/>
<path d="M4.81135 6.53273C5.44376 6.51082 6.08093 6.58559 6.68666 6.77036C7.15859 6.91417 7.61241 7.13037 8.00719 7.42753C7.89956 7.26371 7.78004 7.10799 7.64813 6.96322C7.62622 6.95274 7.60527 6.94132 7.58336 6.93084C7.10144 6.62892 6.56332 6.4313 6.00807 6.33986C5.41423 6.18272 4.78992 6.10938 4.19704 6.2451C3.81084 6.3332 3.46082 6.52368 3.19129 6.81036C3.18034 6.81655 3.16891 6.82322 3.15796 6.82941C3.68941 6.64797 4.25086 6.55178 4.81135 6.53273Z" fill="#ECEADB"/>
<path d="M14.4665 7.3751C14.1527 7.32701 13.836 7.30653 13.5222 7.31844C13.5194 7.3251 13.5165 7.33177 13.5136 7.33844C13.4446 7.33463 13.3755 7.33224 13.3065 7.33272L13.307 7.33177C13.3036 7.33225 13.3008 7.33224 13.2979 7.33272C12.8784 7.33605 12.4565 7.4151 12.0502 7.52463C12.0517 7.52416 12.0522 7.52273 12.0536 7.52178C12.2431 7.43701 12.4384 7.36748 12.6384 7.31177C12.8789 7.2451 13.1236 7.20129 13.3703 7.177C13.3808 7.14986 13.3903 7.12271 13.4003 7.09509C13.0893 7.12747 12.7803 7.17795 12.4769 7.24796C11.9069 7.37891 11.3374 7.58035 10.845 7.90131C11.1626 7.89227 11.4779 7.84226 11.7931 7.80226C12.1745 7.75369 12.5522 7.74083 12.936 7.76655C13.6322 7.81321 14.3146 7.95751 14.9913 8.12037C15.6747 8.28514 16.3461 8.50848 16.979 8.81563C17.5695 9.10183 18.1252 9.46185 18.6195 9.89377C18.1324 9.24946 17.5105 8.70182 16.8247 8.27752C16.1052 7.83226 15.3047 7.50368 14.4665 7.3751Z" fill="#ECEADB"/>
<path d="M7.12286 16.4831C7.25286 16.154 7.34382 15.8088 7.49192 15.4868C7.60431 15.2416 7.76336 15.0335 7.97479 14.8768C8.14575 14.7378 8.34862 14.6373 8.56244 14.5835C8.6934 14.5501 8.82864 14.5344 8.9634 14.5359C9.00722 14.532 9.05151 14.5287 9.09532 14.5268C9.28771 14.5182 9.48247 14.5297 9.67343 14.5616C9.66486 14.5163 9.62009 14.4768 9.58295 14.4578C9.22436 14.2725 8.98388 13.8396 9.04579 13.4372C9.09913 13.0929 9.35438 12.8125 9.59105 12.5748C9.73296 12.432 9.88154 12.2967 10.022 12.1524C10.0358 12.1381 10.043 12.1234 10.0458 12.1081C10.112 12.06 10.1744 12.0062 10.2301 11.9462C10.132 12.0262 10.0282 12.0996 9.91963 12.1629C9.58914 12.3567 9.21294 12.4796 8.83055 12.5067C8.47768 12.5315 8.12528 12.4501 7.79479 12.3305C7.30715 12.1539 6.71951 11.8343 6.44712 11.3567C6.44188 11.6019 6.37474 11.841 6.20807 12.0362C6.00425 12.2748 5.69661 12.3996 5.39565 12.462C5.0323 12.5377 4.6542 12.5353 4.28656 12.4963C3.9156 12.4572 3.54797 12.3801 3.19271 12.2653C3.11843 12.2486 3.04366 12.2315 2.96985 12.2134C2.89842 12.1958 2.84937 12.2343 2.8446 12.2834C3.19367 12.4439 3.53225 12.6282 3.8594 12.8301C4.7242 13.3653 5.53804 14.0354 6.13187 14.8678C6.41379 15.2625 6.64284 15.7011 6.76808 16.1712C6.84047 16.4435 6.87381 16.7236 6.86809 17.0031C6.96428 16.8364 7.0519 16.664 7.12286 16.4831Z" fill="#9B6F11"/>
<path d="M6.4309 12.2982C6.19423 12.7329 5.67468 12.9544 5.22133 13.0791C5.13323 13.1034 5.04323 13.1244 4.95227 13.1434C5.02084 13.1596 5.08895 13.1782 5.15609 13.2006C5.86993 13.4363 6.4309 13.9873 6.72948 14.6716C6.76806 14.7597 6.80139 14.8492 6.83139 14.9397C6.87187 14.8121 6.92759 14.6897 7.00569 14.583C7.1895 14.3325 7.5219 14.2082 7.82667 14.2487C8.0081 14.273 8.17144 14.3521 8.30573 14.4668C8.08001 13.9558 8.27906 13.3954 8.61717 12.9791C8.70241 12.8739 8.7967 12.7763 8.89766 12.6848C8.66432 12.7429 8.42574 12.7772 8.18573 12.7839C7.83476 12.7934 7.44665 12.7529 7.13474 12.5806C6.89711 12.4491 6.68758 12.2586 6.52138 12.041C6.50472 12.1296 6.47567 12.2163 6.4309 12.2982Z" fill="#E6A323"/>
</svg>
